<svg xmlns="http://www.w3.org/2000/svg" aria-hidden="true" style="position:absolute;width:0;height:0;overflow:hidden">
  <defs>

    <!-- Arrow -->
    <symbol id="icon-arrow" viewBox="0 0 20 20">
  <path d="M5 15L15 5" stroke="#777777" stroke-width="1.3" stroke-linecap="round" stroke-linejoin="round" />
  <path d="M8.33325 5H14.9999V11.6667" fill="none" stroke="#777777" stroke-width="1.3" stroke-linecap="round" stroke-linejoin="round" />
    </symbol>

    <!--Hero Star-->
    <symbol id="icon-hero-star" viewBox="0 0 19 18">
      <path d="M9.08333 0.75L11.6583 5.96667L17.4167 6.80833L13.25 10.8667L14.2333 16.6L9.08333 13.8917L3.93333 16.6L4.91667 10.8667L0.75 6.80833L6.50833 5.96667L9.08333 0.75Z" stroke="#121212" stroke-width="1.5" stroke-linecap="round" stroke-linejoin="round" />

    <!--Hero Arrow-->
    <symbol id="icon-hero-arrow" viewBox="0 0 18 9">
      <path fill-rule="evenodd" clip-rule="evenodd" d="M12.5 0L18 4.33013L12.5 8.66025V5.08013L0 5.08013L0 3.58013L12.5 3.58013V0Z" fill="white" />

    <!-- Camera -->
    <symbol id="icon-camera" viewBox="0 0 16 16">
      <path d="M10.5 8.5C10.5 9.16304 10.2366 9.79893 9.76777 10.2678C9.29893 10.7366 8.66304 11 8 11C7.33696 11 6.70107 10.7366 6.23223 10.2678C5.76339 9.79893 5.5 9.16304 5.5 8.5C5.5 7.83696 5.76339 7.20107 6.23223 6.73223C6.70107 6.26339 7.33696 6 8 6C8.66304 6 9.29893 6.26339 9.76777 6.73223C10.2366 7.20107 10.5 7.83696 10.5 8.5Z" fill="#BEA69E" fill-opacity="0.4" />
      <path d="M2 4C1.46957 4 0.960859 4.21071 0.585786 4.58579C0.210714 4.96086 0 5.46957 0 6L0 12C0 12.5304 0.210714 13.0391 0.585786 13.4142C0.960859 13.7893 1.46957 14 2 14H14C14.5304 14 15.0391 13.7893 15.4142 13.4142C15.7893 13.0391 16 12.5304 16 12V6C16 5.46957 15.7893 4.96086 15.4142 4.58579C15.0391 4.21071 14.5304 4 14 4H12.828C12.2976 3.99989 11.789 3.7891 11.414 3.414L10.586 2.586C10.211 2.2109 9.70239 2.00011 9.172 2H6.828C6.29761 2.00011 5.78899 2.2109 5.414 2.586L4.586 3.414C4.21101 3.7891 3.70239 3.99989 3.172 4H2ZM2.5 6C2.36739 6 2.24021 5.94732 2.14645 5.85355C2.05268 5.75979 2 5.63261 2 5.5C2 5.36739 2.05268 5.24021 2.14645 5.14645C2.24021 5.05268 2.36739 5 2.5 5C2.63261 5 2.75979 5.05268 2.85355 5.14645C2.94732 5.24021 3 5.36739 3 5.5C3 5.63261 2.94732 5.75979 2.85355 5.85355C2.75979 5.94732 2.63261 6 2.5 6ZM11.5 8.5C11.5 9.42826 11.1313 10.3185 10.4749 10.9749C9.8185 11.6313 8.92826 12 8 12C7.07174 12 6.1815 11.6313 5.52513 10.9749C4.86875 10.3185 4.5 9.42826 4.5 8.5C4.5 7.57174 4.86875 6.6815 5.52513 6.02513C6.1815 5.36875 7.07174 5 8 5C8.92826 5 9.8185 5.36875 10.4749 6.02513C11.1313 6.6815 11.5 7.57174 11.5 8.5Z" fill="#BEA69E" fill-opacity="0.4" />
    </symbol>

    <!-- Close -->
    <symbol id="icon-cross" viewBox="0 0 32 32">
      <path
        d="M24 8 8 24M8 8l16 16"
        stroke="currentColor"
        stroke-width="3"
        stroke-linecap="round"
        stroke-linejoin="round"
      />
    </symbol>

    <!-- Menu -->
    <symbol id="icon-nav" viewBox="0 0 32 32">
      <path
        d="M5.87 8.667H31M5.87 22H31M13.522 15.333H31"
        stroke="#fff"
        stroke-width="2"
        stroke-linecap="round"
      />
    </symbol>

    <!-- Star -->
    <symbol id="icon-star" viewBox="0 0 18 17">
      <path d="M8.75 0.75L11.222 5.68691L16.75 6.48344L12.75 10.3241L13.694 15.75L8.75 13.1869L3.806 15.75L4.75 10.3241L0.75 6.48344L6.278 5.68691L8.75 0.75Z" fill="#BEA69E" stroke="#BEA69E" stroke-width="1.5" stroke-linecap="round" stroke-linejoin="round" />
    </symbol>

  </defs>
</svg>
