<svg xmlns="http://www.w3.org/2000/svg" aria-hidden="true" style="position:absolute;width:0;height:0;overflow:hidden">
  <defs>

    <!-- ARROW -->
    <symbol id="icon-arrow" viewBox="0 0 32 32">
      <path
        d="m15.321 6.457 11.195-.349-2.288 10.964-3.682-4.388L5.225 25.54l-1.543-1.839 15.321-12.856-3.682-4.388z"
        fill="currentColor"
        opacity="0.4"
      />
    </symbol>

    <!-- CAMERA -->
    <symbol id="icon-camera" viewBox="0 0 32 32">
      <path
        d="M21.161 18.159c0 2.846-2.315 5.161-5.161 5.161s-5.16-2.315-5.16-5.161c0-2.846 2.314-5.161 5.16-5.161s5.161 2.316 5.161 5.161zM32 10.831v14.658a3.538 3.538 0 0 1-3.538 3.538H3.539a3.538 3.538 0 0 1-3.538-3.538V10.831a3.538 3.538 0 0 1 3.538-3.538h4.352V6.069a3.095 3.095 0 0 1 3.096-3.096h10.026a3.095 3.095 0 0 1 3.096 3.096v1.223h4.352a3.54 3.54 0 0 1 3.538 3.539zm-8.185 7.328c0-4.309-3.506-7.815-7.815-7.815s-7.814 3.506-7.814 7.815c0 4.309 3.506 7.815 7.814 7.815s7.815-3.506 7.815-7.815z"
        fill="currentColor"
      />
    </symbol>

    <!-- CLOSE -->
    <symbol id="icon-cross" viewBox="0 0 32 32">
      <path
        d="M24 8 8 24M8 8l16 16"
        stroke="currentColor"
        stroke-width="3"
        stroke-linecap="round"
        stroke-linejoin="round"
      />
    </symbol>

    <!-- MENU -->
    <symbol id="icon-nav" viewBox="0 0 32 32">
      <path
        d="M5.87 8.667H31M5.87 22H31M13.522 15.333H31"
        stroke="currentColor"
        stroke-width="2"
        stroke-linecap="round"
      />
    </symbol>

    <!-- STAR -->
    <symbol id="icon-star" viewBox="0 0 32 32">
      <path
        d="m15.298 2.105 4.337 8.786 9.698 1.418-7.018 6.835 1.656 9.656-8.674-4.561L6.623 28.8l1.656-9.656-7.018-6.835 9.698-1.418 4.337-8.786z"
        fill="currentColor"
      />
    </symbol>

  </defs>
</svg>
